<?xml version="1.0" standalone="no"?>
<!DOCTYPE svg PUBLIC "-//W3C//DTD SVG 20010904//EN"
 "http://www.w3.org/TR/2001/REC-SVG-20010904/DTD/svg10.dtd">
<svg version="1.0" xmlns="http://www.w3.org/2000/svg"
 width="5000.000000pt" height="5000.000000pt" viewBox="0 0 5000.000000 5000.000000"
 preserveAspectRatio="xMidYMid meet">

<g transform="translate(0.000000,5000.000000) scale(0.100000,-0.100000)"
fill="#000000" stroke="none">
<path d="M24670 49993 c-999 -11 -2124 -96 -3150 -239 -5863 -814 -11255
-3707 -15216 -8164 -3273 -3683 -5383 -8251 -6058 -13110 -165 -1184 -237
-2251 -237 -3480 0 -642 14 -1106 51 -1665 366 -5539 2547 -10756 6239 -14920
236 -266 677 -739 831 -890 61 -60 130 -132 152 -158 l41 -49 -2434 -2436
c-1848 -1849 -2449 -2456 -2491 -2517 -125 -179 -217 -395 -254 -601 -26 -147
-24 -385 4 -531 36 -181 120 -397 210 -537 97 -152 276 -339 414 -434 220
-150 458 -231 749 -252 102 -8 3369 -10 11144 -7 11989 4 11129 -1 11995 57
6561 431 12650 3416 17036 8350 3271 3680 5384 8251 6058 13110 165 1184 237
2251 237 3480 0 827 -28 1482 -96 2250 -563 6330 -3526 12197 -8305 16446
-2414 2146 -5241 3813 -8280 4884 -2762 973 -5662 1447 -8640 1413z m9730
-6663 c1019 -70 1933 -477 2658 -1184 263 -257 531 -605 711 -923 670 -1187
719 -2635 130 -3852 -210 -433 -451 -779 -783 -1119 -256 -263 -605 -531 -922
-711 -1327 -748 -2962 -715 -4251 87 -635 396 -1162 965 -1503 1626 -139 267
-264 590 -331 854 -17 65 -28 92 -39 92 -25 0 -188 -29 -315 -56 -795 -170
-1546 -540 -2160 -1063 -146 -125 -410 -387 -540 -536 -734 -847 -1157 -1920
-1193 -3027 l-7 -197 70 -5 c39 -3 203 -12 365 -21 3039 -164 6035 -990 8520
-2350 236 -129 537 -302 699 -402 l103 -64 52 36 c28 20 92 66 143 103 301
218 747 465 1118 619 956 397 1978 532 3020 398 916 -118 1838 -481 2600
-1024 689 -490 1291 -1152 1692 -1861 438 -776 671 -1525 755 -2430 17 -183
17 -785 0 -965 -97 -1011 -404 -1895 -946 -2720 -553 -841 -1298 -1509 -2217
-1989 -167 -87 -159 -76 -159 -226 0 -91 -25 -423 -46 -615 -145 -1338 -583
-2665 -1285 -3890 -377 -659 -828 -1294 -1328 -1870 -395 -456 -881 -943
-1342 -1347 -2758 -2411 -6632 -3950 -10809 -4292 -686 -56 -1059 -71 -1850
-71 -701 0 -901 6 -1435 41 -1357 88 -2627 286 -3900 609 -2698 684 -5107
1872 -7035 3469 -693 575 -1358 1245 -1891 1906 -896 1112 -1548 2300 -1946
3545 -260 815 -413 1664 -449 2490 l-7 161 -146 74 c-1284 655 -2279 1739
-2798 3051 -207 522 -330 1019 -387 1569 -42 396 -34 948 19 1355 222 1700
1176 3209 2625 4150 1443 937 3263 1184 4910 667 490 -154 947 -367 1389 -646
108 -69 190 -126 386 -268 l50 -36 150 90 c1875 1131 4033 1944 6325 2382 994
190 2075 319 3033 362 l157 7 0 146 c0 264 36 656 90 981 185 1109 650 2159
1349 3045 303 384 675 761 1051 1067 960 779 2141 1289 3340 1442 69 9 134 18
146 21 18 4 26 26 58 154 369 1487 1519 2650 2999 3036 424 110 882 154 1307
125z"/>
<path d="M17105 25874 c-16 -2 -70 -9 -120 -15 -408 -50 -826 -215 -1195 -473
-161 -112 -275 -210 -445 -380 -371 -374 -647 -803 -858 -1336 -160 -404 -253
-794 -309 -1300 -20 -181 -17 -703 6 -870 86 -643 296 -1110 675 -1503 196
-203 405 -353 676 -487 338 -167 671 -262 1115 -317 182 -22 748 -25 935 -5
594 65 1082 238 1459 516 600 444 939 1158 1025 2156 71 827 -69 1653 -398
2336 -326 677 -784 1164 -1356 1445 -225 110 -422 173 -675 215 -90 15 -466
28 -535 18z"/>
<path d="M32456 25865 c-579 -70 -1109 -356 -1548 -835 -494 -539 -825 -1299
-932 -2145 -41 -324 -46 -810 -11 -1130 99 -906 414 -1570 950 -1998 390 -312
861 -491 1482 -563 188 -22 746 -26 928 -6 771 84 1377 345 1814 782 280 279
473 607 595 1010 262 872 121 2102 -348 3039 -485 965 -1280 1631 -2162 1810
-245 50 -538 63 -768 36z"/>
<path d="M23955 17513 c-814 -11 -2069 -65 -2995 -128 -671 -46 -1684 -135
-1779 -156 -158 -35 -304 -181 -340 -340 -13 -57 -13 -152 0 -209 13 -56 86
-223 195 -445 458 -935 1164 -1780 2013 -2409 823 -610 1766 -1017 2778 -1200
758 -138 1589 -139 2347 -5 489 86 981 232 1436 424 1233 521 2297 1421 3021
2556 244 382 533 960 558 1116 23 143 -31 297 -140 397 -116 108 -148 116
-624 161 -1387 129 -2730 203 -4235 235 -406 8 -1711 10 -2235 3z"/>
</g>
</svg>
