<?xml version="1.0" standalone="no"?>
<!DOCTYPE svg PUBLIC "-//W3C//DTD SVG 20010904//EN"
 "http://www.w3.org/TR/2001/REC-SVG-20010904/DTD/svg10.dtd">
<svg version="1.0" xmlns="http://www.w3.org/2000/svg"
 width="5000.000000pt" height="3516.000000pt" viewBox="0 0 5000.000000 3516.000000"
 preserveAspectRatio="xMidYMid meet">

<g transform="translate(0.000000,3516.000000) scale(0.100000,-0.100000)"
fill="#000000" stroke="none">
<path d="M23425 35150 c-8188 -95 -14027 -391 -16849 -855 -1081 -177 -1742
-384 -2436 -760 -577 -313 -1041 -664 -1510 -1141 -663 -675 -1151 -1467
-1458 -2364 -94 -275 -118 -374 -172 -705 -835 -5103 -1176 -11217 -910
-16295 144 -2732 453 -5119 921 -7095 91 -384 152 -592 246 -844 246 -662 571
-1231 1014 -1781 313 -388 686 -749 1089 -1054 708 -536 1476 -897 2364 -1111
1762 -424 5853 -734 11791 -895 4226 -114 7939 -134 12010 -65 6101 104 10757
350 13327 705 1373 190 2082 382 2858 776 1402 711 2485 1925 3039 3407 128
343 173 512 240 907 759 4450 1118 9778 981 14570 -97 3413 -439 6420 -1001
8815 -78 335 -127 510 -195 707 -299 862 -773 1642 -1389 2288 -858 898 -1897
1496 -3111 1791 -2201 534 -8004 881 -16519 989 -1118 14 -3495 20 -4330 10z
m3056 -13747 c3558 -2062 6469 -3750 6469 -3753 0 -6 -12935 -7500 -12944
-7500 -3 0 -6 3375 -6 7500 0 4125 3 7500 6 7500 3 0 2917 -1686 6475 -3747z"/>
</g>
</svg>
